<svg id="svg" version="1.1" xmlns="http://www.w3.org/2000/svg" xmlns:xlink="http://www.w3.org/1999/xlink" width="400" height="420.6098843322818" viewBox="0, 0, 400,420.6098843322818"><g id="svgg"><path id="path0" d="M268.819 79.285 C 268.819 79.690,268.862 79.855,268.915 79.653 C 268.968 79.451,268.968 79.119,268.915 78.917 C 268.862 78.715,268.819 78.880,268.819 79.285 M125.342 262.165 C 98.816 263.927,76.878 276.348,62.792 297.581 C 27.842 350.266,65.655 420.555,128.917 420.499 C 185.941 420.448,224.095 362.473,201.645 309.989 C 188.885 280.160,156.837 260.073,125.342 262.165 M136.172 270.897 C 174.988 274.565,203.047 309.486,199.267 349.422 C 196.938 374.024,179.445 397.238,155.972 406.877 C 109.750 425.858,59.050 392.717,58.101 342.902 C 57.361 304.050,86.464 272.894,125.657 270.578 C 127.544 270.467,133.543 270.649,136.172 270.897 M123.134 283.400 C 122.787 283.447,121.509 283.591,120.294 283.719 C 117.093 284.057,105.161 286.404,104.749 286.777 C 104.508 286.995,105.174 287.106,108.437 287.389 C 124.601 288.792,130.486 291.080,130.976 296.148 C 131.329 299.810,126.885 301.369,121.355 299.524 C 119.016 298.743,119.025 298.740,119.680 300.146 C 121.412 303.860,125.694 305.663,132.808 305.673 L 136.803 305.678 140.484 304.733 C 146.303 303.239,149.138 303.545,152.846 306.067 C 156.283 308.405,157.401 311.286,156.054 314.332 L 155.638 315.272 153.561 313.419 C 149.751 310.021,144.897 308.108,142.078 308.893 C 141.388 309.085,141.299 308.961,143.219 310.483 C 144.448 311.458,146.372 313.583,146.372 313.966 C 146.372 314.092,146.462 314.196,146.572 314.196 C 147.066 314.196,148.498 317.703,148.935 319.979 C 149.875 324.880,150.005 325.118,152.377 326.260 C 157.464 328.708,159.169 331.216,159.186 336.278 C 159.206 342.055,156.473 346.021,154.272 343.406 C 153.247 342.188,153.000 338.633,153.631 334.192 C 154.065 331.144,154.013 331.127,152.608 333.859 C 152.073 334.900,150.926 336.651,150.059 337.750 C 144.728 344.508,144.447 344.969,142.154 350.701 C 139.352 357.704,137.501 360.026,135.365 359.213 C 132.776 358.229,134.589 353.880,139.917 348.296 C 147.362 340.493,149.630 336.173,149.872 329.338 L 149.965 326.709 149.072 327.760 C 144.122 333.589,140.731 335.090,132.492 335.098 C 128.076 335.102,127.885 335.084,124.290 334.326 C 115.705 332.514,110.163 332.775,102.433 335.358 C 90.261 339.424,83.175 347.191,81.276 358.548 C 77.510 381.071,104.864 403.463,132.459 400.446 C 138.233 399.814,141.812 398.322,148.782 393.637 C 154.330 389.909,156.680 388.857,161.891 387.774 C 164.540 387.223,164.587 387.180,163.383 386.420 C 160.404 384.540,155.895 383.880,151.091 384.622 C 143.691 385.764,141.078 384.895,142.149 381.649 C 143.121 378.706,146.561 378.014,154.364 379.193 C 167.844 381.231,172.606 379.348,180.130 369.003 C 183.020 365.030,184.960 362.986,186.861 361.914 C 188.357 361.070,188.316 360.947,186.488 360.778 C 183.290 360.481,180.123 361.283,176.236 363.375 C 170.194 366.627,166.273 367.714,164.288 366.687 C 162.111 365.562,163.695 363.397,168.283 361.224 C 175.370 357.869,178.926 353.686,182.864 344.073 C 188.462 330.403,185.201 315.721,174.315 305.588 C 171.917 303.356,171.272 302.304,170.333 299.084 C 169.273 295.449,169.024 295.494,168.751 299.369 C 168.498 302.956,169.364 306.577,171.517 310.941 C 173.255 314.461,173.327 316.653,171.731 317.381 C 170.927 317.747,170.636 317.360,169.907 314.956 C 166.113 302.437,162.467 297.267,153.124 291.158 C 145.109 285.918,131.156 282.308,123.134 283.400 M100.631 292.540 C 96.380 293.433,92.421 296.340,89.613 300.631 C 88.380 302.515,85.095 308.929,85.272 309.107 C 85.485 309.320,88.212 307.272,90.536 305.154 C 94.503 301.540,96.254 300.671,98.047 301.429 C 99.460 302.027,99.323 303.309,97.648 305.196 C 96.322 306.689,95.951 307.591,95.987 309.230 C 96.033 311.290,96.254 311.309,97.747 309.383 C 100.540 305.780,102.035 305.055,106.733 305.027 C 112.187 304.995,113.732 303.842,113.943 299.652 C 114.230 293.961,108.485 290.892,100.631 292.540 M116.202 307.031 C 116.063 307.256,117.714 311.035,118.964 313.354 C 123.004 320.849,127.238 323.848,133.438 323.607 C 139.106 323.387,142.445 319.771,141.719 314.639 C 140.950 309.204,137.457 307.857,128.897 309.695 C 124.539 310.631,120.751 309.892,117.093 307.391 C 116.663 307.096,116.262 306.935,116.202 307.031 " stroke="none" fill="#fc9531" fill-rule="evenodd"></path><path id="path1" d="M72.766 109.367 C 4.988 115.184,-24.747 197.732,23.850 245.165 C 65.572 285.889,135.750 268.862,154.280 213.518 C 172.229 159.912,128.899 104.550,72.766 109.367 M85.804 117.866 C 140.202 123.170,168.497 185.485,136.633 229.806 C 105.008 273.794,37.195 267.202,14.658 217.950 C -7.981 168.471,31.739 112.595,85.804 117.866 M73.295 132.618 C 66.980 134.026,61.116 139.094,58.246 145.624 L 57.583 147.133 56.157 146.452 C 41.968 139.674,28.159 151.049,33.884 164.800 C 34.244 165.665,34.504 166.398,34.462 166.429 C 34.419 166.460,33.706 166.731,32.876 167.030 C 23.228 170.518,20.003 180.314,26.289 187.034 L 27.520 188.349 25.999 189.961 C 18.655 197.747,21.590 207.866,32.302 211.695 C 38.446 213.891,44.904 213.237,53.329 209.565 C 62.570 205.538,68.483 206.328,70.671 211.882 C 73.898 220.074,65.062 230.921,53.628 232.806 C 50.982 233.242,51.307 233.385,54.911 233.371 C 62.991 233.340,66.103 236.115,65.538 242.850 C 65.386 244.668,65.353 244.657,66.847 243.287 C 74.697 236.089,83.489 236.082,97.867 243.260 C 99.354 244.003,100.618 244.563,100.675 244.505 C 100.733 244.447,100.487 243.185,100.127 241.699 C 98.385 234.495,99.892 232.765,107.939 232.735 C 111.126 232.724,111.710 232.575,110.147 232.173 C 99.078 229.327,92.133 222.804,92.117 215.239 C 92.096 205.315,103.586 201.251,116.394 206.652 C 118.353 207.478,120.194 207.581,123.659 207.055 C 135.647 205.238,139.771 196.680,133.244 187.164 L 132.157 185.580 132.943 183.905 C 136.425 176.472,134.168 169.050,127.285 165.300 C 125.817 164.500,125.568 164.288,125.678 163.933 C 127.652 157.551,126.007 154.470,119.786 152.892 C 118.870 152.660,118.109 152.447,118.094 152.418 C 118.080 152.389,117.855 151.609,117.595 150.683 C 114.906 141.130,107.304 137.307,96.447 140.049 L 93.967 140.675 92.798 139.413 C 87.805 134.019,79.690 131.193,73.295 132.618 M79.024 170.610 C 80.118 171.778,80.108 172.978,78.988 175.000 L 78.297 176.247 77.772 175.452 C 76.834 174.034,76.551 173.329,76.552 172.408 C 76.553 170.495,77.959 169.473,79.024 170.610 M95.360 174.328 C 96.956 176.091,96.010 179.021,93.210 180.986 C 92.433 181.531,91.538 182.217,91.220 182.511 L 90.641 183.044 90.649 181.270 C 90.658 178.923,91.129 176.366,91.705 175.525 C 92.732 174.025,94.548 173.431,95.360 174.328 M65.328 176.850 C 66.561 177.410,67.874 178.665,68.482 179.865 C 69.062 181.009,70.312 184.438,70.193 184.557 C 70.094 184.656,65.578 183.065,64.768 182.647 C 60.265 180.318,60.799 174.793,65.328 176.850 M104.522 189.032 C 106.176 190.686,105.074 193.240,102.149 194.534 C 100.997 195.043,99.216 195.307,95.700 195.489 L 92.873 195.635 93.803 194.505 C 97.998 189.414,102.570 187.080,104.522 189.032 M60.162 191.710 C 62.356 192.350,64.699 193.916,67.523 196.632 L 69.085 198.134 66.351 198.024 C 59.848 197.761,56.451 196.609,55.730 194.424 C 54.974 192.134,57.116 190.823,60.162 191.710 " stroke="none" fill="#1ccc43" fill-rule="evenodd"></path><path id="path2" d="M285.003 262.270 C 237.390 264.744,202.716 308.864,211.385 355.941 C 220.932 407.782,278.488 436.116,325.321 412.030 C 384.222 381.738,382.288 296.520,322.082 269.235 C 312.262 264.784,296.283 261.373,288.538 262.074 C 288.365 262.090,286.774 262.178,285.003 262.270 M293.165 270.664 C 347.933 273.952,378.595 334.990,348.365 380.547 C 319.342 424.285,254.642 422.381,227.996 377.005 C 221.215 365.458,217.613 350.565,218.500 337.750 C 221.146 299.547,250.337 271.555,288.644 270.485 C 289.222 270.469,291.257 270.550,293.165 270.664 M285.804 284.760 C 275.464 285.423,265.090 288.388,257.519 292.844 C 255.730 293.897,255.517 294.084,255.647 294.492 C 255.728 294.746,255.851 296.872,255.920 299.218 L 256.046 303.484 259.942 305.222 C 265.532 307.715,273.019 311.710,271.504 311.390 C 261.935 309.373,255.460 308.446,251.682 308.553 L 249.211 308.623 249.120 307.992 C 249.070 307.645,248.929 306.130,248.806 304.627 C 248.440 300.144,248.540 300.195,246.235 303.312 C 234.387 319.334,228.961 339.507,233.770 349.657 C 235.514 353.338,238.688 354.998,249.569 357.922 C 256.575 359.805,259.758 361.456,261.529 364.124 C 262.945 366.257,262.939 366.199,263.077 377.603 L 263.202 387.907 263.881 389.787 C 265.565 394.448,268.352 397.145,272.345 397.977 C 273.097 398.133,273.783 398.221,273.870 398.172 C 273.956 398.123,274.027 395.434,274.027 392.198 C 274.027 385.870,274.266 382.724,274.846 381.389 L 275.211 380.548 275.763 381.494 C 276.521 382.792,277.443 386.205,278.456 391.467 C 278.925 393.904,279.380 396.230,279.466 396.635 L 279.624 397.371 281.820 397.321 C 283.699 397.278,287.202 396.780,287.464 396.518 C 287.510 396.472,287.627 393.617,287.725 390.173 C 288.065 378.255,288.946 375.250,290.084 382.124 C 290.427 384.196,291.062 391.292,291.062 393.057 C 291.062 394.276,290.924 394.238,296.033 394.451 L 299.427 394.593 299.559 393.984 C 299.631 393.649,299.966 391.388,300.304 388.959 C 301.003 383.932,301.585 381.067,302.171 379.764 L 302.576 378.864 302.828 379.495 C 303.459 381.076,303.798 384.460,304.099 392.203 C 304.218 395.260,304.360 397.805,304.414 397.859 C 304.830 398.275,310.058 395.859,311.451 394.607 C 314.400 391.955,314.590 391.053,315.259 376.551 C 315.493 371.462,315.789 366.966,315.915 366.562 C 317.266 362.248,321.048 359.734,328.707 358.059 C 342.445 355.056,346.486 350.169,346.458 336.593 C 346.428 321.854,342.023 310.912,331.627 299.749 L 328.637 296.539 326.306 297.773 C 321.366 300.390,320.675 300.731,318.814 301.476 C 317.758 301.898,316.846 302.195,316.786 302.135 C 316.416 301.765,318.141 299.522,320.870 296.826 C 324.268 293.468,324.180 293.851,321.872 292.485 C 312.059 286.680,299.113 283.907,285.804 284.760 M264.143 324.300 C 270.439 325.806,275.059 330.493,277.087 337.434 C 277.720 339.599,277.887 342.790,277.435 344.082 C 275.803 348.743,248.549 348.831,244.187 344.189 C 243.609 343.573,243.254 341.215,243.424 339.117 C 244.331 327.909,253.076 321.655,264.143 324.300 M322.638 325.000 C 330.730 326.799,335.599 333.856,334.412 342.061 C 333.386 349.151,308.860 351.520,301.503 345.240 C 300.328 344.237,300.030 342.143,300.541 338.471 C 301.886 328.805,312.006 322.635,322.638 325.000 M286.102 356.677 C 286.826 363.592,288.084 365.574,289.743 362.412 C 291.122 359.785,291.655 356.810,291.839 350.726 L 291.965 346.563 292.584 347.151 C 294.198 348.686,295.678 352.201,296.218 355.783 C 296.492 357.600,296.700 369.716,296.458 369.716 C 296.418 369.716,295.858 369.535,295.214 369.313 C 290.931 367.840,287.437 367.920,281.651 369.626 L 281.178 369.765 281.179 363.589 C 281.181 354.057,281.837 351.120,284.797 347.401 L 285.699 346.267 285.829 350.789 C 285.901 353.275,286.024 355.925,286.102 356.677 " stroke="none" fill="#aca49c" fill-rule="evenodd"></path><path id="path3" d="M314.301 105.064 C 313.954 105.110,312.676 105.251,311.462 105.378 C 296.836 106.909,281.004 113.818,269.626 123.634 C 268.660 124.467,267.718 125.265,267.531 125.407 C 265.503 126.952,259.036 134.291,256.284 138.170 C 255.505 139.269,254.730 140.335,254.563 140.539 C 254.396 140.742,254.259 140.985,254.259 141.077 C 254.259 141.170,254.066 141.453,253.830 141.706 C 253.594 141.959,253.443 142.166,253.494 142.166 C 253.545 142.166,253.119 142.946,252.546 143.898 C 249.626 148.757,246.638 155.586,244.931 161.304 C 244.111 164.050,243.012 168.726,242.806 170.347 C 242.755 170.752,242.570 172.029,242.395 173.186 C 240.512 185.671,242.132 200.175,246.751 212.196 C 247.218 213.409,247.599 214.521,247.599 214.667 C 247.599 214.812,247.672 214.932,247.760 214.932 C 247.849 214.932,247.986 215.145,248.066 215.405 C 249.310 219.472,255.587 229.645,260.296 235.226 C 273.350 250.698,293.665 261.447,312.723 262.966 C 313.244 263.008,314.853 263.103,316.299 263.179 C 317.744 263.254,319.276 263.360,319.701 263.414 C 321.176 263.601,328.145 263.081,334.069 262.341 C 342.705 261.263,356.039 255.971,364.669 250.196 C 383.968 237.281,395.798 218.455,399.516 194.742 C 400.190 190.442,400.071 177.045,399.316 172.228 C 393.800 137.026,366.933 110.671,331.230 105.439 C 329.144 105.134,315.991 104.842,314.301 105.064 M327.760 113.568 C 328.570 113.668,329.848 113.805,330.599 113.873 C 331.351 113.940,333.055 114.231,334.385 114.518 C 335.715 114.806,337.087 115.093,337.434 115.157 C 339.095 115.461,345.172 117.348,346.057 117.835 C 346.288 117.962,346.641 118.093,346.840 118.126 C 347.722 118.274,355.537 122.082,356.046 122.612 C 356.104 122.672,356.432 122.845,356.775 122.996 C 357.730 123.417,361.935 126.204,361.935 126.416 C 361.935 126.519,362.077 126.604,362.250 126.604 C 362.424 126.604,362.566 126.698,362.566 126.814 C 362.566 126.930,362.671 127.024,362.799 127.024 C 363.084 127.024,365.244 128.718,367.508 130.716 C 368.433 131.533,369.413 132.385,369.686 132.610 C 372.658 135.060,381.914 146.849,381.914 148.186 C 381.914 148.345,381.995 148.475,382.095 148.475 C 382.297 148.475,385.183 154.042,385.911 155.836 C 386.169 156.472,386.514 157.297,386.677 157.669 C 387.491 159.523,389.020 164.174,389.359 165.825 C 389.383 165.941,389.511 166.367,389.644 166.772 C 389.942 167.679,390.945 172.840,391.075 174.132 C 391.127 174.653,391.220 175.315,391.282 175.605 C 391.736 177.731,391.815 187.980,391.405 191.588 C 391.109 194.192,391.019 194.786,390.623 196.740 C 390.460 197.550,390.277 198.544,390.218 198.948 C 390.050 200.093,388.444 205.896,388.036 206.835 C 387.834 207.298,387.545 208.126,387.393 208.675 C 387.241 209.225,387.019 209.674,386.899 209.674 C 386.779 209.674,386.735 209.729,386.802 209.796 C 387.043 210.037,384.892 214.806,382.962 218.310 C 363.080 254.400,316.150 265.979,281.939 243.235 C 244.299 218.212,239.078 165.612,271.072 133.754 C 274.780 130.061,284.045 122.881,284.506 123.343 C 284.551 123.387,284.783 123.242,285.022 123.019 C 285.712 122.376,292.168 119.205,295.164 118.038 C 305.239 114.112,318.007 112.361,327.760 113.568 M331.107 128.033 C 328.437 129.849,325.575 131.809,324.746 132.387 C 323.451 133.291,316.162 138.741,315.247 139.489 C 306.385 146.734,300.083 153.307,294.633 160.988 C 293.894 162.029,293.238 162.929,293.175 162.986 C 293.112 163.044,292.908 163.376,292.722 163.723 C 292.102 164.878,289.925 168.347,289.738 168.478 C 289.637 168.549,289.567 168.670,289.583 168.747 C 289.627 168.961,287.445 172.954,287.187 173.130 C 287.063 173.215,287.033 173.286,287.121 173.288 C 287.209 173.290,286.913 174.025,286.463 174.921 C 281.103 185.601,278.943 197.323,280.428 207.676 C 280.644 209.180,280.834 210.554,280.851 210.729 C 280.868 210.905,280.936 211.141,281.002 211.255 C 281.068 211.369,281.183 211.793,281.256 212.198 C 281.508 213.583,281.562 213.779,282.398 216.299 C 282.859 217.687,283.269 218.964,283.311 219.138 C 283.352 219.311,283.433 219.501,283.491 219.558 C 283.549 219.616,284.103 220.705,284.722 221.977 C 288.659 230.063,294.506 235.935,302.374 239.702 C 303.729 240.350,304.951 240.901,305.089 240.925 C 305.350 240.971,308.588 242.011,309.148 242.230 C 309.322 242.297,309.558 242.371,309.674 242.393 C 309.790 242.415,309.932 242.452,309.989 242.474 C 310.047 242.497,310.331 242.540,310.620 242.569 C 310.910 242.598,312.187 242.801,313.460 243.019 C 318.248 243.840,326.495 243.455,331.376 242.182 C 331.977 242.025,332.519 241.947,332.580 242.009 C 332.642 242.071,332.813 242.023,332.960 241.903 C 333.108 241.783,333.902 241.485,334.727 241.241 C 335.551 240.997,336.923 240.505,337.776 240.149 C 338.629 239.792,339.422 239.479,339.537 239.453 C 339.653 239.427,340.410 239.065,341.220 238.648 C 355.133 231.488,362.574 219.185,361.861 204.522 C 361.253 192.003,356.244 182.636,342.077 167.524 C 332.290 157.085,331.026 150.179,335.233 130.149 C 336.335 124.904,336.368 124.709,336.147 124.721 C 336.046 124.726,333.777 126.216,331.107 128.033 M347.075 191.056 C 348.191 191.591,350.006 193.296,351.092 194.828 C 352.093 196.240,353.411 198.736,353.158 198.741 C 353.069 198.743,353.103 198.814,353.233 198.899 C 353.650 199.172,354.632 202.787,354.734 204.423 C 355.438 215.699,341.619 217.399,338.985 206.360 C 338.049 202.440,338.773 196.483,340.547 193.509 C 341.250 192.331,342.728 190.889,343.038 191.081 C 343.137 191.142,343.218 191.099,343.218 190.985 C 343.218 190.429,345.870 190.477,347.075 191.056 M133.425 202.787 L 132.808 203.470 133.491 202.852 C 133.867 202.513,134.175 202.205,134.175 202.169 C 134.175 202.006,134.001 202.149,133.425 202.787 M107.417 232.750 C 107.795 232.796,108.363 232.796,108.679 232.748 C 108.995 232.700,108.686 232.661,107.992 232.662 C 107.298 232.664,107.039 232.703,107.417 232.750 M288.387 270.607 C 288.940 270.650,289.792 270.650,290.280 270.606 C 290.768 270.562,290.315 270.526,289.274 270.527 C 288.233 270.527,287.834 270.564,288.387 270.607 " stroke="none" fill="#1c94cc" fill-rule="evenodd"></path><path id="path4" d="M190.957 0.131 C 164.618 3.207,144.068 15.920,130.489 37.539 C 127.765 41.875,123.729 50.455,122.814 53.853 C 122.684 54.336,122.475 54.980,122.350 55.284 C 122.225 55.587,122.087 56.025,122.043 56.256 C 121.999 56.487,121.785 57.292,121.567 58.044 C 121.349 58.796,121.105 59.742,121.023 60.147 C 120.942 60.552,120.821 60.976,120.753 61.090 C 120.685 61.204,120.615 61.440,120.596 61.616 C 120.577 61.791,120.404 62.739,120.210 63.722 C 117.783 76.033,118.414 90.138,121.903 101.524 C 122.195 102.478,122.459 103.377,122.489 103.522 C 122.520 103.667,122.603 103.927,122.674 104.101 C 122.746 104.274,123.235 105.585,123.762 107.014 C 128.249 119.187,136.585 131.073,146.477 139.403 C 147.518 140.280,148.417 141.049,148.475 141.113 C 148.585 141.234,151.608 143.446,153.417 144.730 C 161.367 150.371,174.064 155.540,184.017 157.187 C 212.324 161.872,238.401 152.669,257.864 131.125 C 275.783 111.291,281.991 80.461,273.314 54.402 C 263.664 25.421,239.488 5.243,208.845 0.594 C 206.119 0.181,193.361 -0.149,190.957 0.131 M205.258 8.630 C 230.816 11.166,253.379 27.948,263.423 51.893 C 263.920 53.078,264.274 54.048,264.209 54.048 C 264.145 54.048,264.182 54.167,264.292 54.311 C 265.271 55.594,267.469 64.169,268.260 69.788 C 268.564 71.950,269.022 79.678,268.861 79.938 C 268.818 80.008,268.769 80.954,268.752 82.041 C 268.725 83.801,268.650 84.785,268.251 88.606 C 267.234 98.355,261.239 113.417,255.532 120.562 C 255.419 120.704,254.387 122.003,253.240 123.449 C 223.647 160.745,165.493 158.238,139.079 118.528 C 116.155 84.064,127.229 37.797,163.298 17.346 C 166.342 15.620,170.107 13.837,170.368 13.998 C 170.472 14.063,170.557 14.025,170.557 13.914 C 170.557 13.803,171.728 13.281,173.158 12.754 C 183.519 8.939,194.345 7.548,205.258 8.630 M202.335 18.204 C 193.762 21.357,185.750 28.450,184.294 34.175 C 184.265 34.290,184.051 34.905,183.820 35.542 C 183.153 37.376,183.181 37.447,185.121 38.856 C 190.326 42.638,191.948 48.499,188.360 50.561 C 186.189 51.809,185.501 51.519,182.654 48.160 C 178.551 43.317,176.881 42.191,172.854 41.545 C 171.879 41.389,169.195 41.765,167.457 42.302 L 166.090 42.725 165.361 42.025 C 163.664 40.394,161.264 36.463,159.802 32.920 C 158.814 30.523,158.810 30.523,157.739 32.854 C 153.643 41.762,153.511 51.605,157.392 58.546 L 158.196 59.983 160.013 59.802 C 162.716 59.533,166.404 59.576,167.056 59.884 C 167.362 60.029,167.841 60.253,168.120 60.383 C 170.799 61.629,171.799 66.118,169.782 67.844 C 169.596 68.004,168.088 68.046,164.935 67.981 C 156.710 67.811,153.806 69.271,150.915 75.026 L 150.361 76.130 149.155 76.130 C 146.348 76.129,142.558 75.156,137.600 73.161 C 136.667 72.786,136.635 72.904,137.223 74.566 C 140.037 82.515,145.791 89.229,152.352 92.219 C 154.286 93.100,157.076 93.912,157.297 93.657 C 157.381 93.560,158.033 92.661,158.747 91.659 C 162.890 85.840,170.197 85.274,170.123 90.778 L 170.109 91.798 168.109 93.481 C 161.724 98.852,160.203 102.623,161.796 109.135 L 162.214 110.845 161.496 111.601 C 159.547 113.656,154.933 116.392,151.579 117.483 C 150.915 117.699,150.372 117.971,150.374 118.086 C 150.377 118.354,153.325 119.658,155.871 120.517 C 156.951 120.881,157.976 121.231,158.149 121.294 C 158.626 121.468,158.731 121.492,160.883 121.898 C 163.806 122.450,169.159 122.412,171.726 121.821 C 175.009 121.065,179.538 119.048,179.463 118.375 C 179.446 118.216,179.270 117.187,179.073 116.088 C 177.965 109.913,181.962 104.250,185.769 106.603 C 186.736 107.201,186.761 107.360,186.608 112.104 C 186.345 120.303,187.805 123.549,192.955 126.213 C 194.753 127.143,194.743 127.129,194.740 128.575 C 194.736 131.135,193.653 135.237,191.779 139.792 C 191.260 141.056,192.245 140.848,196.621 138.772 C 204.297 135.130,209.341 129.860,211.758 122.959 C 212.642 120.435,212.661 120.507,210.778 119.182 C 206.892 116.446,206.069 115.185,205.930 111.760 C 205.795 108.448,206.583 107.233,208.963 107.082 L 210.331 106.995 211.422 108.226 C 218.213 115.893,221.313 117.347,227.388 115.717 C 228.628 115.384,229.719 115.166,229.812 115.232 C 231.381 116.358,234.709 121.822,236.194 125.710 C 236.824 127.360,236.877 127.353,237.727 125.499 C 242.025 116.120,242.312 107.361,238.567 99.858 C 237.451 97.623,237.711 97.762,235.323 98.121 C 231.467 98.700,228.967 98.400,227.270 97.156 C 224.897 95.417,224.124 92.282,225.662 90.636 L 226.275 89.980 228.963 90.153 C 238.569 90.771,241.701 89.404,245.116 83.102 L 245.725 81.978 247.311 82.118 C 250.480 82.397,253.549 83.250,258.404 85.199 C 259.366 85.585,259.375 85.477,258.574 83.322 C 255.257 74.401,249.135 67.784,241.851 65.247 C 238.767 64.173,239.147 64.076,237.533 66.353 C 235.300 69.503,234.050 70.434,231.443 70.888 C 226.116 71.815,223.620 68.525,227.234 65.337 C 234.557 58.878,235.950 55.798,234.367 49.565 L 233.823 47.424 234.840 46.495 C 236.840 44.669,240.665 42.449,244.111 41.113 C 246.020 40.373,246.014 40.317,243.901 39.333 C 235.007 35.192,225.988 34.866,218.751 38.424 C 216.411 39.574,216.510 39.382,216.927 41.976 C 217.945 48.298,216.111 52.362,212.240 52.365 C 209.477 52.367,209.192 51.829,209.237 46.714 C 209.316 37.903,208.064 35.022,202.872 32.072 L 201.022 31.020 201.155 29.446 C 201.406 26.479,202.522 22.471,204.019 19.161 C 204.933 17.142,205.047 17.207,202.335 18.204 M202.839 53.935 C 205.951 54.572,210.670 56.464,211.888 57.564 C 212.116 57.770,212.562 58.073,212.879 58.236 C 213.196 58.400,214.180 59.201,215.065 60.016 C 216.420 61.265,217.171 62.096,218.924 64.282 C 221.702 67.748,223.622 73.785,223.628 79.075 C 223.632 82.464,222.825 86.890,221.950 88.275 C 221.786 88.536,221.702 88.749,221.764 88.749 C 221.979 88.749,220.348 91.808,219.233 93.493 C 210.370 106.900,190.550 108.666,179.585 97.025 C 164.787 81.315,173.885 56.261,195.373 53.549 C 196.803 53.369,201.178 53.595,202.839 53.935 M194.092 57.950 C 184.030 59.772,175.564 70.061,176.364 79.496 C 176.388 79.785,176.456 80.657,176.515 81.433 C 176.574 82.210,176.666 82.920,176.720 83.011 C 176.773 83.101,176.883 83.507,176.964 83.912 C 177.164 84.916,178.104 87.628,178.584 88.591 C 178.801 89.025,178.905 89.381,178.816 89.383 C 178.727 89.385,178.756 89.456,178.880 89.541 C 179.004 89.626,179.518 90.310,180.022 91.062 C 188.752 104.099,208.162 103.746,216.345 90.401 C 226.036 74.599,212.352 54.644,194.092 57.950 M218.345 340.063 C 218.345 340.468,218.389 340.634,218.441 340.431 C 218.494 340.229,218.494 339.897,218.441 339.695 C 218.389 339.493,218.345 339.658,218.345 340.063 M218.345 342.797 C 218.345 343.202,218.389 343.368,218.441 343.165 C 218.494 342.963,218.494 342.631,218.441 342.429 C 218.389 342.227,218.345 342.392,218.345 342.797 M287.750 388.538 C 287.753 389.001,287.796 389.166,287.846 388.904 C 287.896 388.642,287.894 388.264,287.842 388.063 C 287.789 387.862,287.748 388.076,287.750 388.538 " stroke="none" fill="#ffcc66" fill-rule="evenodd"></path></g></svg>